# File produced by Open Asset Import Library (http://www.assimp.sf.net)
# (assimp v6.0.0)

mtllib ground_ramps.mtl

# 24 vertex positions
v 0 0 -128
v 0 0 0
v 128 64 0
v 128 0 -128
v 0 64 0
v 128 128 0
v 0 256 0
v 128 192 0
v 0 192 0
v 0 128 0
v 128 0 0
v 128 256 0
v 128 128 -128
v 128 256 -128
v 128 63.9999008 -128
v 128 63.9999008 0
v 128 192 -128
v 128 64 -128
v 0 128 -128
v 0 256 -128
v 0 64 -128
v 0 192 -128
v 0 63.9999008 -128
v 0 63.9999008 0

# 4 UV coordinates
vt 0.75 0 0
vt 0.75 0.25 0
vt 1 0.25 0
vt 1 0 0

# 180 vertex normals
vn -0.188798994 0.970723987 -0.148489997
vn -0.407294005 0.912699997 -0.0330318995
vn -0.455442995 0.884600997 -0.100270003
vn -0.0720418021 0.930334985 -0.35956499
vn -0.249863997 0.950230002 -0.186094999
vn 0.114837997 0.889313996 -0.442642987
vn -0.0632043034 0.954311013 -0.292055011
vn 0.441673994 0.816420972 -0.371995002
vn 0.452215999 0.836884022 -0.308423996
vn -0.0549383014 0.923940003 -0.378571987
vn 0.311616987 0.858626008 -0.407007992
vn 0.146417007 0.875195026 -0.461080998
vn 0.0898168981 0.977320015 -0.191776007
vn 0.409285009 0.879873991 -0.241470993
vn -0.0263288002 0.988767982 -0.147120997
vn 0.353899002 0.930648983 -0.0929964036
vn 0.133457005 0.97992003 -0.148142993
vn 0.0450787991 0.972531021 -0.228365004
vn -0.189923003 0.774535 -0.603344023
vn -0.533827007 0.793739974 -0.291557014
vn 0.00511333998 0.976701021 -0.214543998
vn -0.249864995 0.950230002 -0.186095998
vn -0.0509666987 0.978459001 -0.200049996
vn -0.168945998 0.965972006 -0.195847005
vn -0.38648501 0.919089019 -0.0768370032
vn -0.49278301 0.864790022 -0.0964545012
vn -0.135242999 0.897468984 -0.419831991
vn -0.389382005 0.920037985 0.0437246002
vn -0.344267994 0.938664973 -0.0196806993
vn 0.0450786985 0.972531021 -0.228365004
vn -0.598424017 0.764622986 -0.239250004
vn -0.242679 0.893751979 -0.377245992
vn -0.357353985 0.929319978 0.0930745006
vn -0.312377006 0.946754992 -0.0779474005
vn -0.368185014 0.929669023 0.0124808997
vn -0.262764007 0.939324021 0.220508993
vn -0.0137695996 0.901692986 0.432157993
vn -0.206209004 0.903401971 0.375954986
vn -0.351624012 0.932388008 -0.0837438032
vn -0.373587012 0.819001019 0.43551001
vn -0.325805008 0.937981009 -0.118499003
vn -0.447694004 0.890936971 0.0761682987
vn -0.263525009 0.884452999 -0.385093987
vn -0.279855013 0.86224699 -0.422152013
vn -0.179370001 0.973769009 0.140001997
vn -0.634723008 0.760424972 -0.137407005
vn -0.337985992 0.903244972 -0.264411986
vn -0.0788977966 0.948056996 -0.308160007
vn 0.101450004 0.930186987 -0.352789998
vn -0.176140994 0.81734699 -0.548560023
vn -0.268741012 0.959779978 0.0812477022
vn -0.179479003 0.97408098 -0.137672007
vn -0.0949656963 0.960515022 -0.261519998
vn -0.0484826006 0.870064974 -0.490548015
vn -0.233339995 0.951976001 -0.198227003
vn -0.0276512001 0.91020602 -0.413233012
vn -0.291312009 0.953890979 -0.072319597
vn 0.103942998 0.853767991 -0.510173023
vn -0.0961648971 0.828821003 -0.551187992
vn -0.129988 0.907797992 -0.398755997
vn -0.249200001 0.934940994 -0.252555996
vn 0.0127438996 0.886969984 -0.461650014
vn -0.364605993 0.914366007 0.176057994
vn -0.243497998 0.969556987 -0.0258585997
vn -0.301532 0.787333012 0.537760019
vn -0.343712002 0.860472023 0.376096994
vn -0.394136012 0.907546997 -0.144969001
vn -0.518188 0.855234981 0.00731609995
vn 0.376911998 0.925556004 0.0358114988
vn 0.421752006 0.906144023 0.0320484005
vn 0.50257802 0.858933985 -0.0982244015
vn 0.136398003 0.954366982 -0.265668005
vn 0.387369007 0.919147015 -0.0715148002
vn 0.168020993 0.976581991 -0.134371996
vn -0.38973099 0.907781005 0.155057997
vn -0.242727995 0.931877017 0.269605994
vn 0.0278699007 0.878386021 0.477138996
vn -0.0229471996 0.878026009 0.478062004
vn -0.113803998 0.950038016 0.29065001
vn 0.0854306966 0.937337995 0.337785989
vn 0.197758004 0.972586989 -0.122336
vn 0.240336999 0.956454992 0.165622994
vn 0.556820989 0.830114007 -0.0293457992
vn 0.0972509012 0.913827002 -0.394288003
vn 0.479187995 0.835501015 -0.268918008
vn -0.284536988 0.94562602 0.157574996
vn -0.390902996 0.840341985 0.375526994
vn -0.0598904006 0.798123002 0.599511027
vn -0.203472003 0.95876801 0.198403001
vn 0.224824995 0.952154994 0.207013994
vn 0.0188906994 0.908680975 0.417062998
vn -0.0442628004 0.869082987 0.492680997
vn 0.310467988 0.904549003 0.292234987
vn 0.340227008 0.937653005 -0.0710828975
vn 0.0928433016 0.990212977 0.104200996
vn 0.257676005 0.966230989 -0.000669049972
vn 0.472671986 0.835686028 -0.279661
vn 0.463169992 0.759037971 -0.457531989
vn 0.198771 0.977200985 -0.0746150017
vn 0.441055 0.883719981 0.156558007
vn 0.295329005 0.843858004 -0.44797799
vn 0.60413003 0.778949022 -0.168123007
vn 0.196254998 0.845089972 -0.497299999
vn -0.126389995 0.928734004 -0.348536998
vn 0.0447889008 0.950882971 -0.306293011
vn 0.47894901 0.875244975 -0.0674849972
vn 0.604130983 0.778949022 -0.168121994
vn -0.0141804004 0.833796978 0.551887989
vn 0.0459956005 0.908095002 0.41622901
vn 0.208241001 0.957243025 0.200801
vn 0.300143003 0.950241983 0.0833891034
vn -0.219727993 0.950815976 0.218330994
vn 0.251720995 0.952832997 0.169547006
vn 0.185888007 0.974304974 0.127185002
vn 0.0234814994 0.971177995 0.237194002
vn 0.00331094 0.970430017 0.241361007
vn 0.531449974 0.835494995 0.139673993
vn 0.114449002 0.986478984 0.117308997
vn 0.328826994 0.925348997 0.188685
vn 0.39230901 0.917891026 -0.0597498007
vn 0.347685993 0.937434018 0.0182210002
vn 0.123540998 0.954180002 0.272542
vn 0.503929973 0.860970974 0.0691666976
vn 0.190143004 0.97054702 0.147936001
vn 0.408383995 0.911848009 0.0418896005
vn -0.165038005 0.767705023 0.619185984
vn 0.0146041997 0.96864301 0.248025998
vn -0.0127555998 0.966140985 0.25770101
vn -0.470759988 0.740474999 0.479667991
vn 0.00706567988 0.963572025 0.267356008
vn -0.441067994 0.823948026 0.355764002
vn -0.303485006 0.805981994 0.508221984
vn -0.045351401 0.954881012 0.29350701
vn -0.151238993 0.949963987 0.273303002
vn -0.581295013 0.810463011 0.0724297017
vn -0.322501004 0.944700003 0.0594495013
vn -0.347636014 0.931895018 -0.103546001
vn 0.263940006 0.900700986 -0.345068991
vn 0.189805999 0.980359018 -0.0535674989
vn 0.277745992 0.954540014 0.108218998
vn 0.0252352003 0.903752029 -0.427313
vn 0.246170998 0.945226014 -0.214355007
vn 0.0255429 0.854198992 -0.519317985
vn -0.111075997 0.942277014 -0.31587401
vn 0.199873 0.943666995 -0.263711989
vn 0.295850009 0.94838202 -0.114212997
vn 0.0127568003 0.902390003 -0.430730999
vn 0.188240007 0.958208978 -0.215409994
vn -0.406827003 0.912615001 0.0403219983
vn -0.189096004 0.966883004 0.171405002
vn 0.0698323026 0.967239022 0.244073004
vn -0.400056005 0.892527997 0.208204001
vn -0.108522996 0.975601017 0.190855995
vn -0.441067994 0.823948026 0.355765015
vn -0.35956201 0.924440026 0.126984
vn -0.140717998 0.985773981 0.0919146985
vn -0.197292 0.936598003 0.289584994
vn -0.547037005 0.835864007 0.0456312001
vn -0.226279005 0.963581026 0.142514005
vn -0.267482013 0.945055008 -0.187948003
vn 0.359432012 0.812325001 0.459279001
vn 0.592247009 0.78877002 0.164577007
vn 0.403824002 0.902369976 0.150512993
vn 0.303479999 0.860921979 0.408304989
vn 0.492859989 0.710493982 0.50228101
vn 0.198834002 0.977391005 0.0719136
vn -0.145466998 0.936726987 0.318405002
vn -0.0819569007 0.792452991 0.604402006
vn 0.199490994 0.962876976 0.181858003
vn 0.0954539999 0.956450999 0.275844008
vn -0.0251199007 0.957690001 0.286702991
vn -0.0179005992 0.955416977 0.294717997
vn 0.529129982 0.82418102 0.201858997
vn 0.0563011989 0.951554 0.302284986
vn 0.249807999 0.838558018 0.484165013
vn 0.450933009 0.892545998 0.00452328008
vn 0.419856995 0.90546 -0.0621509999
vn 0.0656215996 0.968581975 0.239879996
vn 0.509380996 0.840122998 0.186343998
vn 0.0563014001 0.951554 0.302284986

# Mesh 'AAHL00' with 2 faces
g AAHL00
usemtl $Material_0
f  1/1/1 2/2/2 3/3/3
f  3/3/3 4/4/4 1/1/1

# Mesh 'AAHL01' with 2 faces
g AAHL01
usemtl $Material_1
f  1/1/4 5/2/3 6/3/5
f  6/3/5 4/4/6 1/1/4

# Mesh 'AAHX00' with 2 faces
g AAHX00
usemtl $Material_2
f  1/1/7 7/2/8 8/3/9
f  8/3/9 4/4/10 1/1/7

# Mesh 'AAHX01' with 2 faces
g AAHX01
usemtl $Material_3
f  1/1/10 9/2/9 6/3/11
f  6/3/11 4/4/12 1/1/10

# Mesh 'AALH00' with 2 faces
g AALH00
usemtl $Material_4
f  1/1/13 10/2/8 3/3/14
f  3/3/14 4/4/15 1/1/13

# Mesh 'AALH01' with 2 faces
g AALH01
usemtl $Material_5
f  1/1/15 5/2/14 11/3/16
f  11/3/16 4/4/17 1/1/15

# Mesh 'AAXH00' with 2 faces
g AAXH00
usemtl $Material_6
f  1/1/18 10/2/19 8/3/20
f  8/3/20 4/4/21 1/1/18

# Mesh 'AAXH01' with 2 faces
g AAXH01
usemtl $Material_7
f  1/1/21 9/2/20 12/3/22
f  12/3/22 4/4/23 1/1/21

# Mesh 'ABHL00' with 2 faces
g ABHL00
usemtl $Material_8
f  1/1/24 2/2/25 3/3/26
f  3/3/26 4/4/27 1/1/24

# Mesh 'ABHL01' with 2 faces
g ABHL01
usemtl $Material_9
f  1/1/27 5/2/26 6/3/28
f  6/3/28 13/4/29 1/1/27

# Mesh 'ACXH00' with 2 faces
g ACXH00
usemtl $Material_10
f  1/1/30 10/2/19 8/3/31
f  8/3/31 4/4/32 1/1/30

# Mesh 'ACXH01' with 2 faces
g ACXH01
usemtl $Material_11
f  1/1/32 9/2/31 12/3/33
f  12/3/33 14/4/34 1/1/32

# Mesh 'AHLA00' with 2 faces
g AHLA00
usemtl $Material_12
f  1/1/35 2/2/36 11/3/37
f  11/3/37 15/4/38 1/1/35

# Mesh 'AHLA01' with 2 faces
g AHLA01
usemtl $Material_13
f  1/1/39 2/2/35 16/3/38
f  16/3/38 13/4/40 1/1/39

# Mesh 'AHXA00' with 2 faces
g AHXA00
usemtl $Material_14
f  1/1/41 2/2/42 12/3/43
f  12/3/43 17/4/44 1/1/41

# Mesh 'AHXA01' with 2 faces
g AHXA01
usemtl $Material_15
f  1/1/45 2/2/41 8/3/44
f  8/3/44 13/4/46 1/1/45

# Mesh 'AHXC00' with 2 faces
g AHXC00
usemtl $Material_16
f  1/1/47 7/2/48 12/3/49
f  12/3/49 17/4/50 1/1/47

# Mesh 'AHXC01' with 2 faces
g AHXC01
usemtl $Material_17
f  1/1/45 2/2/47 8/3/50
f  8/3/50 13/4/46 1/1/45

# Mesh 'ALHA00' with 2 faces
g ALHA00
usemtl $Material_18
f  1/1/51 2/2/52 6/3/53
f  6/3/53 18/4/54 1/1/51

# Mesh 'ALHA01' with 2 faces
g ALHA01
usemtl $Material_19
f  1/1/55 2/2/51 3/3/54
f  3/3/54 4/4/56 1/1/55

# Mesh 'ALHB00' with 2 faces
g ALHB00
usemtl $Material_20
f  1/1/57 10/2/58 6/3/59
f  6/3/59 15/4/60 1/1/57

# Mesh 'ALHB01' with 2 faces
g ALHB01
usemtl $Material_21
f  1/1/61 2/2/57 16/3/60
f  16/3/60 4/4/62 1/1/61

# Mesh 'AXHA00' with 2 faces
g AXHA00
usemtl $Material_22
f  1/1/63 2/2/64 6/3/65
f  6/3/65 17/4/66 1/1/63

# Mesh 'AXHA01' with 2 faces
g AXHA01
usemtl $Material_23
f  1/1/67 2/2/68 8/3/66
f  8/3/66 14/4/40 1/1/67

# Mesh 'BALH00' with 2 faces
g BALH00
usemtl $Material_24
f  19/1/69 10/2/70 3/3/71
f  3/3/71 4/4/72 19/1/69

# Mesh 'BALH01' with 2 faces
g BALH01
usemtl $Material_25
f  1/1/72 5/2/71 11/3/73
f  11/3/73 4/4/74 1/1/72

# Mesh 'BHLA00' with 2 faces
g BHLA00
usemtl $Material_26
f  1/1/75 2/2/76 11/3/77
f  11/3/77 15/4/78 1/1/75

# Mesh 'BHLA01' with 2 faces
g BHLA01
usemtl $Material_27
f  19/1/79 2/2/75 16/3/78
f  16/3/78 13/4/80 19/1/79

# Mesh 'CAHX00' with 2 faces
g CAHX00
usemtl $Material_28
f  20/1/81 7/2/82 8/3/83
f  8/3/83 4/4/84 20/1/81

# Mesh 'CAHX01' with 2 faces
g CAHX01
usemtl $Material_29
f  1/1/84 9/2/83 6/3/85
f  6/3/85 4/4/12 1/1/84

# Mesh 'CXHA00' with 2 faces
g CXHA00
usemtl $Material_30
f  1/1/86 2/2/64 6/3/87
f  6/3/87 17/4/88 1/1/86

# Mesh 'CXHA01' with 2 faces
g CXHA01
usemtl $Material_31
f  20/1/89 2/2/86 8/3/88
f  8/3/88 14/4/90 20/1/89

# Mesh 'HAAL00' with 2 faces
g HAAL00
usemtl $Material_32
f  21/1/91 2/2/92 11/3/93
f  11/3/93 4/4/94 21/1/91

# Mesh 'HAAL01' with 2 faces
g HAAL01
usemtl $Material_33
f  19/1/95 5/2/91 11/3/94
f  11/3/94 4/4/96 19/1/95

# Mesh 'HAAX00' with 2 faces
g HAAX00
usemtl $Material_34
f  22/1/97 7/2/98 11/3/99
f  11/3/99 4/4/100 22/1/97

# Mesh 'HAAX01' with 2 faces
g HAAX01
usemtl $Material_35
f  19/1/101 9/2/97 11/3/100
f  11/3/100 4/4/102 19/1/101

# Mesh 'HACX00' with 2 faces
g HACX00
usemtl $Material_36
f  22/1/103 7/2/104 12/3/105
f  12/3/105 4/4/106 22/1/103

# Mesh 'HACX01' with 2 faces
g HACX01
usemtl $Material_37
f  19/1/101 9/2/103 11/3/106
f  11/3/106 4/4/107 19/1/101

# Mesh 'HBAL00' with 2 faces
g HBAL00
usemtl $Material_38
f  23/1/108 2/2/109 11/3/110
f  11/3/110 4/4/111 23/1/108

# Mesh 'HBAL01' with 2 faces
g HBAL01
usemtl $Material_39
f  19/1/112 24/2/108 11/3/111
f  11/3/111 13/4/113 19/1/112

# Mesh 'HLAA00' with 2 faces
g HLAA00
usemtl $Material_40
f  19/1/114 2/2/115 11/3/116
f  11/3/116 18/4/117 19/1/114

# Mesh 'HLAA01' with 2 faces
g HLAA01
usemtl $Material_41
f  21/1/117 2/2/116 11/3/118
f  11/3/118 4/4/119 21/1/117

# Mesh 'HLAB00' with 2 faces
g HLAB00
usemtl $Material_42
f  19/1/120 10/2/121 11/3/122
f  11/3/122 18/4/123 19/1/120

# Mesh 'HLAB01' with 2 faces
g HLAB01
usemtl $Material_43
f  21/1/123 2/2/122 11/3/124
f  11/3/124 4/4/125 21/1/123

# Mesh 'HXAA00' with 2 faces
g HXAA00
usemtl $Material_44
f  19/1/126 2/2/127 11/3/128
f  11/3/128 17/4/129 19/1/126

# Mesh 'HXAA01' with 2 faces
g HXAA01
usemtl $Material_45
f  22/1/129 2/2/128 11/3/130
f  11/3/130 14/4/131 22/1/129

# Mesh 'HXCA00' with 2 faces
g HXCA00
usemtl $Material_46
f  19/1/132 2/2/133 11/3/134
f  11/3/134 17/4/135 19/1/132

# Mesh 'HXCA01' with 2 faces
g HXCA01
usemtl $Material_47
f  22/1/135 2/2/134 12/3/136
f  12/3/136 14/4/137 22/1/135

# Mesh 'LAAH00' with 2 faces
g LAAH00
usemtl $Material_48
f  21/1/138 10/2/98 11/3/139
f  11/3/139 4/4/140 21/1/138

# Mesh 'LAAH01' with 2 faces
g LAAH01
usemtl $Material_49
f  1/1/141 5/2/138 11/3/140
f  11/3/140 4/4/142 1/1/141

# Mesh 'LABH00' with 2 faces
g LABH00
usemtl $Material_50
f  21/1/143 10/2/144 6/3/145
f  6/3/145 4/4/146 21/1/143

# Mesh 'LABH01' with 2 faces
g LABH01
usemtl $Material_51
f  1/1/147 5/2/143 11/3/146
f  11/3/146 4/4/148 1/1/147

# Mesh 'LHAA00' with 2 faces
g LHAA00
usemtl $Material_52
f  1/1/149 2/2/150 11/3/151
f  11/3/151 18/4/152 1/1/149

# Mesh 'LHAA01' with 2 faces
g LHAA01
usemtl $Material_53
f  21/1/152 2/2/151 11/3/153
f  11/3/153 13/4/154 21/1/152

# Mesh 'LHBA00' with 2 faces
g LHBA00
usemtl $Material_54
f  1/1/155 2/2/156 11/3/157
f  11/3/157 15/4/158 1/1/155

# Mesh 'LHBA01' with 2 faces
g LHBA01
usemtl $Material_55
f  23/1/158 2/2/157 6/3/159
f  6/3/159 13/4/160 23/1/158

# Mesh 'XAAH00' with 2 faces
g XAAH00
usemtl $Material_56
f  22/1/161 10/2/162 11/3/99
f  11/3/99 4/4/163 22/1/161

# Mesh 'XAAH01' with 2 faces
g XAAH01
usemtl $Material_57
f  20/1/164 9/2/161 11/3/163
f  11/3/163 4/4/102 20/1/164

# Mesh 'XCAH00' with 2 faces
g XCAH00
usemtl $Material_58
f  22/1/165 10/2/162 11/3/99
f  11/3/99 4/4/166 22/1/165

# Mesh 'XCAH01' with 2 faces
g XCAH01
usemtl $Material_59
f  20/1/167 9/2/168 11/3/169
f  11/3/169 14/4/170 20/1/167

# Mesh 'XHAA00' with 2 faces
g XHAA00
usemtl $Material_60
f  20/1/114 2/2/171 11/3/172
f  11/3/172 17/4/173 20/1/114

# Mesh 'XHAA01' with 2 faces
g XHAA01
usemtl $Material_61
f  22/1/173 2/2/172 11/3/174
f  11/3/174 13/4/175 22/1/173

# Mesh 'XHAC00' with 2 faces
g XHAC00
usemtl $Material_62
f  20/1/176 7/2/177 11/3/178
f  11/3/178 17/4/179 20/1/176

# Mesh 'XHAC01' with 2 faces
g XHAC01
usemtl $Material_63
f  22/1/179 2/2/178 11/3/180
f  11/3/180 13/4/175 22/1/179

